<svg width="633" height="163" viewBox="0 0 633 163" fill="none" xmlns="http://www.w3.org/2000/svg">
<path fill-rule="evenodd" clip-rule="evenodd" d="M210.846 56.3239V106.331C210.846 113.049 205.379 118.519 198.657 118.519H183.292C176.573 118.519 171.104 113.052 171.104 106.331V56.3239C171.104 49.6051 176.57 44.1353 183.292 44.1353H198.657C205.379 44.1382 210.846 49.6051 210.846 56.3239ZM119.374 140.457C119.374 128.341 109.552 118.519 97.4362 118.519H44.1185V22.2004C44.1185 10.0848 34.2962 0.262531 22.1806 0.262531C10.0651 0.262531 0.242798 10.0848 0.242798 22.2004V140.457C0.242798 152.573 10.0651 162.395 22.1806 162.395H97.4362C109.552 162.395 119.374 152.573 119.374 140.457ZM254.722 56.3239C254.722 25.4121 229.572 0.259609 198.657 0.259609H183.292C152.38 0.259609 127.228 25.4091 127.228 56.3239V106.331C127.228 137.242 152.377 162.395 183.292 162.395H198.657C229.572 162.395 254.722 137.245 254.722 106.331V56.3239ZM403.94 106.331C403.94 94.215 394.118 84.3927 382.002 84.3927H362.048C349.932 84.3927 340.11 94.215 340.11 106.331C340.11 110.841 341.47 115.033 343.804 118.519H332.513C325.795 118.519 320.325 113.052 320.325 106.331V56.3239C320.325 49.6051 325.792 44.1353 332.513 44.1353H347.879C351.69 44.1353 354.363 45.7879 355.934 47.1773C365.019 55.1978 378.881 54.332 386.899 45.2497C394.916 36.1675 394.053 22.3027 384.971 14.2852C374.728 5.24096 361.553 0.262531 347.879 0.262531H332.513C301.602 0.262531 276.449 25.4121 276.449 56.3269V106.333C276.449 137.245 301.599 162.398 332.513 162.398H347.879C378.791 162.395 403.94 137.245 403.94 106.331ZM468.973 22.2004C468.973 10.0848 459.15 0.262531 447.035 0.262531C434.919 0.262531 425.097 10.0848 425.097 22.2004V140.457C425.097 152.573 434.919 162.395 447.035 162.395C459.15 162.395 468.973 152.573 468.973 140.457V22.2004ZM632.044 22.2004C632.044 10.0848 622.222 0.262531 610.106 0.262531C597.99 0.262531 588.168 10.0848 588.168 22.2004V76.6062L535.272 8.71883C529.515 1.32725 519.702 -1.59195 510.839 1.45594C501.979 4.50092 496.029 12.8344 496.029 22.2033V140.46C496.029 152.576 505.852 162.398 517.967 162.398C530.083 162.398 539.905 152.576 539.905 140.46V86.0541L592.802 153.941C597.04 159.382 603.475 162.398 610.109 162.398C612.487 162.398 614.894 162.009 617.234 161.207C626.094 158.162 632.044 149.826 632.044 140.46V22.2004Z" fill="black"/>
</svg>
